<?xml version="1.0" encoding="UTF-8"?>
<svg id="Layer_1" xmlns="http://www.w3.org/2000/svg" version="1.1" viewBox="0 0 858.2 149.1">
  <!-- Generator: Adobe Illustrator 30.3.0, SVG Export Plug-In . SVG Version: 2.1.3 Build 182)  -->
  <defs>
    <style>
      .st0 {
        fill: #ac9d82;
      }

      .st1 {
        fill: #efeff0;
      }
    </style>
  </defs>
  <path class="st0" d="M460.4,14.8c-2.3,0-15,7.9-18.7,10-2.1-4.9-8.6-23.2-13.2-24.8-3.4,3.7-9.6,19.5-11.8,24.7-3.2-1.8-19.5-12.6-20-9-1.3,8.4,3.1,30,4.8,37.9h28.6c8.7,0,18.3.2,26.9,0,.6-3.6,8.3-38.8,3.5-38.9ZM452.3,48.4h-22.3s-24.1,0-24.1,0c-.7-7.5-2.8-17.9-4-25.6,4,2.3,12.6,8.4,16.8,7.7,3.4-1.6,8-14.7,10-19.3,3.3,1.8,6.6,14.4,8,17.9,2.2,5.7,16.9-4.6,19.7-6.3-1.5,7.2-3.4,18.4-4.2,25.7Z"/>
  <path class="st1" d="M750.2,120.3c-1.4-5.9-5.2-11-10.4-14.1-5.7-3.5-11.3-4-17.8-3.7-14.1,3.3-24.4,13-20.6,28.5,1.4,5.9,5.1,11.1,10.3,14.2,6.3,3.9,11.9,3.9,19,3.5,13.7-3.2,22.9-13.9,19.4-28.4ZM730.4,146.3c-26.7,4.2-34-32.8-8.7-41.4,28.1-2.1,31.8,33.8,8.7,41.4Z"/>
  <path class="st1" d="M353.5,120c-1.5-5.9-5.3-10.9-10.5-14-5.4-3.2-10.7-3.9-16.8-3.6-14.1,2.6-24.4,12.1-21.6,27.4,1,6,4.5,11.2,9.5,14.6,6.4,4.4,12.8,4.8,20.3,4.2,13.8-3.3,22.8-14.1,19.2-28.6ZM333.6,146.3c-27.4,4.2-33.6-34.8-7.8-41.6,26.6-1.8,31.5,33.7,7.8,41.6Z"/>
  <path class="st0" d="M0,36.6c21.9-1.1,51.5-.2,74-.2h143.8s96.6,0,96.6,0h29.8c4.3,0,12.3-.2,16.3.3,1.2,1.3.9,2.1,1.2,4.1H116.5s-76.4,0-76.4,0c-10.9,0-28.8.7-38.9-.1-1.2-1.1-.9-2-1.2-4Z"/>
  <path class="st0" d="M496.4,36.6c8.8-.5,20.1-.2,29.1-.2h52.6s161.1,0,161.1,0h81.2c6.5,0,31.9-.6,36.9.4.9,1.1.7,2.4.9,3.9h-237.3c-40.6,0-82.5.6-122.9,0-1.6-1.2-1.2-1.6-1.6-4.1Z"/>
  <path class="st1" d="M170.5,96.1c7-.4,22.8-1.2,28.7,2.1,2.8,1.6,4.8,4.2,5.6,7.2,2.3,8.7-2.9,16.6-11.5,18.8,6.3,5.9,10.7,15.3,17.5,20.8.4.4,4.6,2.2,5.5,2.6-11.4,5.5-22.5-16-27.8-22.6-1-1.3-2.4-.4-4.1-2.8l.3-.3,4.9-.4c6.2-1.3,10.6-5.5,10.5-12.1,0-2.9-1.3-5.7-3.4-7.8-4.5-4.3-9.8-3.6-15.4-3.5,0,7.3-.7,42.4.7,46.7,1.1,1.8,3.1,2.3,5.1,3.2h-16.9c.8-.3,1.5-.6,2.3-.9,4.1-1.8,3.9-4.7,3.8-8.8-.2-12.9.9-26.3-.7-39.1-.2-1.6-3.9-2.7-5.1-3.2Z"/>
  <path class="st1" d="M421.2,103.7c12.2-1.7,41.8-1.9,31,18.3-1.8,3.4-5.3,4.8-8.7,5.8,7.6,7.5,10.3,16.4,20.4,19.5l-.3.6c-8.7,5.2-19.8-12.3-23.9-18.1-1-1.4-4.3-1.8-5.4-3.7l2.1-.3c4.7-.3,7.1-.2,10.7-3.9,3.6-3.7,3.4-9-.3-12.5-4.6-4.4-10.1-3.7-16-3.6,0,11.1-.6,28.1.5,39.4,0,.9,3.2,2.3,4.2,2.7-3.2.6-11.7.4-15.3.3,3.9-1.4,6-2.1,5.7-6.8-.5-11,1-23.9-.4-34.6-1.5-2.1-1.6-1.7-4.2-2.9Z"/>
  <path class="st1" d="M653.9,103.7c5.5-.7,22.4-.9,27.1,1.7,10.7,6.2,6.9,18.8-4.7,22.4,7.7,7.7,9.7,15.7,20.3,19.7-10.3,5.2-19.2-11.5-24.4-18-1.3-1.6-4.1-1.4-5.4-3.6l2.7-.3c4.4-.3,6.4-.1,9.8-3.4,3.8-3.6,4-8.9.3-12.7-4.5-4.5-10.4-3.9-16.3-3.9,0,6-.5,35,.5,39.3,1,1.6,2.4,2,4.1,2.8-2.4.9-11.7.5-14.9.4,3.6-1.5,5.7-2.2,5.5-6.7-.6-10.7,1.2-24.3-.4-34.8-.8-1.7-2.5-2.2-4.3-2.9Z"/>
  <path class="st1" d="M612.5,95.4c10.2-.5,14.6-.4,23.9,4.7.2,3.8,1,7.8,1.6,11.6-4-8.2-6.8-13.2-16.9-14.4-30.2-3.7-32.3,46.8-4.5,49.6,6.6.7,13.4-2.5,18.3-6.7,0-3.7,1-12.7-1.3-15.5-.7-.8-1.5-.5-2.6-.5l-.6-.6c.4-.2.9-.3,1.4-.4,1.1-.2,11.1-.2,12.1.4-3,.7-4.1,1.1-4.2,4.6,0,3.8,0,7.7,0,11.5-3.7,4.1-8.5,7-13.9,8.4-7,1.8-15.2,1.1-21.5-2.6-6-3.5-10.3-9.2-11.9-16-4.2-16.4,3.7-30,20.1-34.2Z"/>
  <path class="st1" d="M818.1,103.7c.3,0,.5,0,.8-.1,11.8-1.4,42.9-1.7,29.6,21.5-2.4,4.2-13.4,5.9-17.5,2.5,6-.3,11.8-.8,14.5-7.2,1.2-2.7,1.2-5.8,0-8.5-1.4-3.4-3.5-4.4-6.8-5.8-3.5-.4-7.6-.3-11.2-.3,0,6.9-.5,33.8.4,39.2,1,1.7,2.5,2.1,4.3,2.8-3.5.7-11.2.4-15.1.4,2.1-.8,2.9-1.1,4.5-2.5,1.7-2.9,1.3-34.8.5-39-.8-1.7-2.4-2.1-4.1-2.9Z"/>
  <path class="st1" d="M797.5,103.4c3.3,0,5.5-.2,8.8.4-.2,0-.3.1-.5.2-.8.3-3.1,1.2-3.3,2.2-1.4,10.8,2,24-2.3,34.2-4,9.5-19.1,10.3-27.2,6.4-13.2-7-5.5-28.6-8.4-40.2-.4-1.7-2.1-2.1-3.5-2.9,2.7-.4,10.7-.2,13.7-.3-2.7.9-5.2,1.6-5,5,.4,9.8-1.6,23.1,2.2,32,3.3,7.8,15.7,8.2,21.6,3.7,7.5-5.8,4.6-18.3,5.2-26.6.2-3.6.4-7.9-.3-11.3-.3-1.2-2.8-1-4-2.5l3-.2Z"/>
  <path class="st1" d="M401.5,103.4c3.2,0,4.8,0,7.9.3-1,.4-3.4,1.7-3.5,2.6-1.4,11.1,2.2,24.1-2.5,34.5-4.1,8.9-20,9.9-27.3,5.7-12.7-7.2-4.9-28-7.8-39.6-.5-2.1-2-2.4-3.7-3.3,3-.4,10.3-.2,13.6-.2-1.2.5-2.4,1-3.7,1.6-2.1,2-1,25.1-.9,29.2.4,15.8,23.6,17.5,27.5,3.2,2.3-8.5,1.4-22,.7-31,0-1.1-2.9-1.2-3.9-2.8l3.5-.2Z"/>
  <path class="st1" d="M251.2,102.5c.2,0,.6.5.8.7.2,2.8.3,4.1-.2,6.9-.3-.7-1-2.5-1.5-2.9-3.1-2.6-14-1.7-18.1-1.6v19c3.8,0,10.2.5,13.9-.4.7-.2,1.9-2.7,2.2-3.5.4,1.7.6,8.2-.1,9.6-.7-1.5-.9-1.9-2-3.2-3-.7-10.6-.4-14-.3v18.7c5.8,0,12.4.6,17.9-1.3,3.2-2.3,5-5.9,7-9.2-1.4,4.1-3.3,8.8-4.8,13h-30.6c1.4-.5,4.7-1.7,5-2.9,1.5-5.4,1.2-35.3.1-39-1.2-1.7-3.3-2.1-5.3-2.8,7.5,0,22.8.6,29.7-.9Z"/>
  <path class="st1" d="M81.6,102.6l.5.4c.5,2.2.1,4.8,0,7.1-.2-1-.7-2-1.5-2.7-3.2-2.9-13.4-1.8-18.1-1.7v18.9c5,0,14.2,1.8,16-3.5.7,1,.7,7.9,0,9.1-.5-1.5-.6-1.7-1.7-2.9-2.2-.7-11.5-.4-14.4-.4v18.7c5.8,0,12.1.5,17.6-1.1,3.4-2.4,4.8-5,7.2-8.4-1.6,3.9-3.1,8-4.5,12-5.9-.1-25,.7-29.3-.5,1.2-.5,2.2-1.1,3.3-1.8,1.7-3.7,1.3-33.4.5-39.3-.2-1.2-2.3-1.8-3.6-2.4,1.9-1.5,21.4-.2,28.1-1.6Z"/>
  <path class="st1" d="M553.6,102.5c.3,0,.5.4.8.6.2,2.9.2,4-.2,6.9-.6-.8-1-1.7-1.4-2.5-3.7-3.2-13.1-2-18.4-1.9v18.9c4.3,0,10.2.6,14.3-.5-.2,0,1-2.4,2-3.1.5,1.5.6,7.6-.2,8.9l.4-.3-.2.5c-.8-1.1-1.3-1.9-2.2-2.9-2.6-.6-11-.3-14.1-.3v18.7c6.1,0,12.5.6,18.2-1.5,3.2-2.3,4.8-5.7,6.8-9.1-1.5,4.3-3.2,8.7-4.8,13h-30.8c2-.7,3.6-1.1,5.1-2.5,1.6-3.1,1.5-35.7.3-39.4-1.3-1.7-3.3-2-5.3-2.7,8,0,22.3.6,29.7-.9Z"/>
  <path class="st1" d="M489.5,102.5c7.3-.5,14,1,20.5,4.4.6,3.4,1.1,7.6,1.6,11.1-4.7-11-11.1-14.9-23.4-13-17.3,2.8-19.8,30.2-6.1,38.8,6.5,4.1,13,3.1,20,1.5.4-.2.7-.3,1-.5,6.7-3.3,8-7.4,10.2-13.9.3,2.9-.2,6.3-.6,9.2-13.5,14.9-41,11.6-44.5-10.2-2.5-15.5,5.9-25.1,21.1-27.3Z"/>
  <path class="st1" d="M117,126.8c2-3.3,11.9-18.5,11.5-20.8-1.1-1.4-1.4-1.5-3.1-2.1,2.6-1,11.6-.3,14.7-.2-7.1,2.4-8,5.3-12.1,11.7l-9.3,14.2c0,4.6-1,10.5.4,14.7.8,2.3,2.6,2.8,4.8,3.8h-15.7c8.2-3.4,5.8-10.4,5.6-18.3-4-6.4-11.5-19.1-16-24.5l-5-1.6c3.7-.3,12.8-.8,16,0-1.5.9-1.8,1.1-2.8,2.5,0,2.3,9.3,17.6,11,20.6Z"/>
  <path class="st1" d="M277.4,102.5c3.9-.3,8.3.3,12.2.7,0,2.6,0,4.7-.2,7.3h-.6c-2.1-8.9-16.3-7.2-17.4.8-.2,1.5.8,3.9,1.8,5,4.7,5.4,11.8,8.5,16.7,13.8,4.9,5.3,3.2,11-1.6,15.7-3.9,3.6-9.1,3.1-14,2.8-10.1-2.3-8.3-4.7-7.1-14.2.9,4.6,2,9.9,6.6,11.5,13.3,4.7,21.1-8.2,7.2-16.9-10.9-6.8-23.4-20.4-3.6-26.5Z"/>
  <path class="st1" d="M28.5,96h15.8c-1.2.3-5,1.4-5.9,2.1-6.9,5.6-14.5,15.4-20.4,22.3,4.4,5.1,18.6,22.9,23,25.9,1.5.5,2.1.7,3.6,1.4l-.4.4c-.7,0-1.4,0-2.1,0-8.7-.6-11.6-4.6-16.8-11-4-5-8.1-10-12.3-14.8,3.5-4.3,16.2-19.7,18-23.4-.4-1.9-.7-1.6-2.6-2.9Z"/>
  <path class="st1" d="M.5,96.1c3.1-.3,11.7-.2,14.7,0-4.6,3.5-4.7,4.5-4.5,10.3.4,12.6-1,25.9.8,38.4.2,1.2,3.7,2.7,4.7,3.1-4.4.3-11.5.1-16.2.1,2-.9,3.6-1.4,5-3.1,1.5-3.5,1.4-41.4.2-45.8-1-1.8-2.9-2.3-4.8-3.1Z"/>
</svg>